<?xml version="1.0" encoding="UTF-8" standalone="no"?>
<!-- Created with Inkscape (http://www.inkscape.org/) -->

<svg
   width="11.902015mm"
   height="11.902015mm"
   viewBox="0 0 42.172493 42.172493"
   id="svg2"
   version="1.1"
   inkscape:version="1.1 (c4e8f9e, 2021-05-24)"
   sodipodi:docname="icon_world.svg"
   xmlns:inkscape="http://www.inkscape.org/namespaces/inkscape"
   xmlns:sodipodi="http://sodipodi.sourceforge.net/DTD/sodipodi-0.dtd"
   xmlns="http://www.w3.org/2000/svg"
   xmlns:svg="http://www.w3.org/2000/svg"
   xmlns:rdf="http://www.w3.org/1999/02/22-rdf-syntax-ns#"
   xmlns:cc="http://creativecommons.org/ns#"
   xmlns:dc="http://purl.org/dc/elements/1.1/">
  <defs
     id="defs4" />
  <sodipodi:namedview
     id="base"
     pagecolor="#ffffff"
     bordercolor="#666666"
     borderopacity="1.0"
     inkscape:pageopacity="0.0"
     inkscape:pageshadow="2"
     inkscape:zoom="8.3987271"
     inkscape:cx="11.489836"
     inkscape:cy="28.635292"
     inkscape:document-units="px"
     inkscape:current-layer="layer1"
     showgrid="false"
     fit-margin-top="0"
     fit-margin-left="0"
     fit-margin-right="0"
     fit-margin-bottom="0"
     inkscape:window-width="1366"
     inkscape:window-height="744"
     inkscape:window-x="0"
     inkscape:window-y="24"
     inkscape:window-maximized="1"
     inkscape:pagecheckerboard="0"
     inkscape:snap-global="false" />
  <metadata
     id="metadata7">
    <rdf:RDF>
      <cc:Work
         rdf:about="">
        <dc:format>image/svg+xml</dc:format>
        <dc:type
           rdf:resource="http://purl.org/dc/dcmitype/StillImage" />
        <dc:title />
      </cc:Work>
    </rdf:RDF>
  </metadata>
  <g
     inkscape:label="Layer 1"
     inkscape:groupmode="layer"
     id="layer1"
     transform="translate(-1.056611,-511.27595)">
    <path
       id="path1014"
       style="fill:#ffffff;stroke-width:0.0284726;fill-rule:evenodd;fill-opacity:1"
       d="m 21.557482,546.26817 c -2.645816,-0.18256 -5.296955,-1.1139 -7.333958,-2.57635 -2.288089,-1.64275 -4.05111,-3.92597 -4.9885147,-6.46046 -0.991575,-2.68098 -1.152041,-5.45855 -0.472637,-8.18133 0.514448,-2.06174 1.4748327,-3.94626 2.8607817,-5.61365 0.332507,-0.40003 1.313033,-1.37561 1.719974,-1.71125 1.360522,-1.12226 2.77213,-1.91892 4.358668,-2.4599 1.396937,-0.47632 2.972756,-0.76771 4.154617,-0.76824 1.082796,-4.5e-4 2.217976,0.0748 2.833043,0.18768 2.774676,0.50965 5.17272,1.70807 7.178557,3.58749 3.627492,3.39895 5.154537,8.49722 3.994457,13.33626 -0.610759,2.54766 -1.828901,4.7012 -3.728955,6.59245 -2.31824,2.3075 -5.067612,3.59777 -8.55451,4.01463 -0.3659,0.0438 -1.66168,0.0776 -2.021523,0.0526 z m -2.277824,-2.13982 c 0,-0.034 -0.124944,-0.21046 -0.498761,-0.7042 -0.828283,-1.09405 -1.54469,-2.31729 -2.080306,-3.55195 -0.106945,-0.24665 -0.206009,-0.44845 -0.220057,-0.44845 -0.04319,0 -0.776217,0.29491 -1.272482,0.51184 -0.738371,0.32277 -1.679864,0.79138 -1.679864,0.83612 0,0.048 0.51205,0.55508 0.868394,0.86014 1.04189,0.89185 2.158606,1.5606 3.439764,2.05991 0.867805,0.33822 1.443312,0.51231 1.443312,0.43659 z m 6.454454,-0.0752 c 1.858696,-0.535 3.694192,-1.61034 5.068358,-2.96936 0.14566,-0.14406 0.264828,-0.28124 0.264828,-0.30486 0,-0.0483 -1.141616,-0.6297 -1.679863,-0.85548 -0.543044,-0.22777 -1.292048,-0.50029 -1.313658,-0.47793 -0.01101,0.011 -0.08675,0.17475 -0.167893,0.36267 -0.530551,1.22777 -1.367056,2.65061 -2.19485,3.73338 -0.169055,0.22116 -0.33482,0.44858 -0.368347,0.5054 -0.06045,0.10241 -0.06045,0.10327 -0.0049,0.10327 0.03157,0 0.209288,-0.0437 0.394887,-0.0971 z m -4.331859,-5.50584 c -0.0073,-0.007 -0.202669,0.002 -0.434325,0.0208 -1.006944,0.081 -2.629713,0.33128 -2.713617,0.41854 -0.03732,0.0387 0.04356,0.2434 0.313382,0.7931 0.736291,1.50049 1.553989,2.69818 2.50379,3.6674 l 0.329387,0.33608 0.0073,-2.61137 c 0.0049,-1.43627 0,-2.61728 -0.0061,-2.6245 z m 2.316772,4.67759 c 0.522719,-0.58972 1.160251,-1.43522 1.528513,-2.0271 0.354019,-0.5691 1.039933,-1.92699 1.083592,-2.14526 0.01468,-0.0731 0.0061,-0.0826 -0.09397,-0.1111 -0.406219,-0.11551 -2.522549,-0.40024 -2.975155,-0.40024 h -0.08162 v 2.62541 2.62542 l 0.130548,-0.12694 c 0.07183,-0.0699 0.255407,-0.26789 0.408091,-0.44014 z M 13.13926,538.97237 c 0.653757,-0.34215 1.480535,-0.70324 2.325043,-1.01547 0.24273,-0.0897 0.450868,-0.17175 0.462566,-0.18226 0.01101,-0.011 -0.02937,-0.21711 -0.09165,-0.45913 -0.245838,-0.95913 -0.51703,-2.7378 -0.560823,-3.67882 l -0.01823,-0.39149 h -2.56244 -2.562438 l 0.01823,0.2953 c 0.02043,0.33358 0.154642,1.15693 0.265184,1.6266 0.311656,1.324 0.928901,2.73255 1.755764,4.00651 l 0.161053,0.24811 0.24508,-0.14153 c 0.134782,-0.0778 0.388048,-0.21636 0.56283,-0.30782 z m 19.365845,0.067 c 0.496534,-0.76537 1.035442,-1.85098 1.311834,-2.64251 0.317163,-0.90833 0.638107,-2.396 0.638499,-2.95948 v -0.19218 h -2.549187 c -2.014855,0 -2.551413,0.007 -2.559636,0.0356 -0.0061,0.0196 -0.03818,0.33668 -0.07244,0.70469 -0.12361,1.33293 -0.242069,2.09139 -0.485827,3.11122 -0.0777,0.32528 -0.141341,0.60823 -0.141341,0.62879 0,0.0221 0.205373,0.11587 0.505381,0.2306 0.897197,0.34304 2.209827,0.95679 2.825261,1.32101 0.193956,0.11478 0.249533,0.13623 0.282754,0.10915 0.02264,-0.0186 0.132764,-0.17464 0.244554,-0.3469 z m -14.309406,-1.83569 c 0.567908,-0.10841 0.894224,-0.15972 1.354441,-0.21295 0.4088,-0.0472 1.773104,-0.18629 1.829354,-0.18639 0.02802,-6e-5 0.03561,-0.37503 0.03561,-1.77979 v -1.77971 l -2.213755,0.007 -2.213742,0.007 0.0086,0.1993 c 0.03781,0.8767 0.245936,2.33092 0.462432,3.22856 0.101194,0.4195 0.174966,0.60101 0.244333,0.60101 0.02716,0 0.248958,-0.038 0.492753,-0.0847 z m 8.766025,0.0486 c 0.03598,-0.0437 0.232378,-0.88577 0.32984,-1.41609 0.123292,-0.67067 0.245483,-1.64018 0.289815,-2.29916 l 0.01958,-0.29184 H 25.39068 23.180351 v 1.77953 1.77954 h 0.06595 c 0.03646,0 0.398228,0.0319 0.804361,0.0711 0.855766,0.0824 1.558749,0.17944 2.261684,0.31224 0.579814,0.10951 0.609646,0.11245 0.649353,0.0647 z m -11.713207,-5.83645 c 0.0086,-0.0509 0.02851,-0.27192 0.0454,-0.49116 0.09777,-1.26488 0.274875,-2.37053 0.581601,-3.63026 0.114776,-0.47157 0.146504,-0.41995 -0.375591,-0.61134 -0.646967,-0.23715 -1.126419,-0.4468 -2.164174,-0.94626 -0.792541,-0.38145 -0.924778,-0.43685 -0.964301,-0.404 -0.115143,0.0956 -0.570526,0.84244 -0.906313,1.48654 -0.686183,1.31609 -1.213662,3.05991 -1.310683,4.33311 -0.0098,0.12527 -0.02362,0.2566 -0.03071,0.29184 l -0.01334,0.0641 h 2.561764 2.561814 z m 6.166584,-1.75361 v -1.84616 l -0.485056,-0.0344 c -0.868443,-0.0616 -1.861988,-0.19397 -2.709396,-0.36101 -0.426188,-0.0839 -0.521875,-0.0951 -0.552784,-0.0641 -0.04001,0.04 -0.252018,0.86497 -0.350066,1.36146 -0.164076,0.83078 -0.279231,1.71023 -0.306579,2.34116 l -0.01823,0.41926 0.481324,0.009 c 0.264743,0.005 1.259684,0.011 2.211038,0.0149 l 1.729714,0.006 z m 6.178551,1.74302 c 0,-0.20315 -0.08883,-1.08764 -0.158337,-1.57677 -0.09189,-0.64659 -0.188083,-1.15615 -0.327074,-1.73244 -0.119915,-0.49698 -0.19983,-0.7162 -0.26128,-0.7162 -0.02092,0 -0.204223,0.0316 -0.407332,0.0702 -0.834426,0.15877 -1.772003,0.27397 -2.711134,0.33315 l -0.548109,0.0345 v 1.8453 1.8453 h 2.206633 2.206633 z m 6.86192,-0.0525 c 0,-0.38259 -0.233075,-1.64182 -0.425613,-2.29915 -0.359182,-1.22662 -0.939216,-2.46675 -1.632154,-3.48975 -0.170341,-0.25145 -0.206841,-0.29015 -0.259004,-0.27461 -0.03341,0.01 -0.188842,0.0923 -0.345441,0.18287 -0.619301,0.35842 -1.674443,0.85761 -2.448654,1.15845 -0.613696,0.23847 -0.72939,0.29482 -0.713703,0.3477 0.0073,0.0251 0.08431,0.35317 0.170659,0.72902 0.256643,1.11629 0.364346,1.81199 0.477152,3.08216 l 0.06375,0.71893 h 2.556479 2.556479 z m -13.085513,-5.29993 c 0.0405,-0.0155 0.04503,-0.25783 0.04503,-2.44865 0,-1.46366 -0.01101,-2.43137 -0.02619,-2.43137 -0.03243,0 -0.689328,0.69313 -0.984747,1.03926 -0.710326,0.83223 -1.30672,1.7452 -1.82282,2.79032 -0.285287,0.57768 -0.292091,0.59818 -0.213338,0.64032 0.122117,0.0653 1.873722,0.32701 2.64852,0.39562 0.14878,0.0132 0.27906,0.0257 0.289509,0.0279 0.01101,0.002 0.03916,-0.004 0.06412,-0.0133 z m 2.363955,-0.0132 c 1.063586,-0.081 2.549896,-0.3277 2.549896,-0.42327 0,-0.048 -0.562426,-1.13252 -0.753984,-1.45393 -0.60507,-1.01513 -1.349498,-1.98448 -2.076795,-2.70434 l -0.272745,-0.26992 v 2.44097 2.44095 h 0.07672 c 0.04221,0 0.256789,-0.0137 0.476931,-0.0305 z m -6.064142,-2.9734 c 0.447711,-0.74267 0.879283,-1.34215 1.475591,-2.04974 0.197824,-0.23474 0.349541,-0.43698 0.337084,-0.44942 -0.03022,-0.0303 -0.818139,0.19983 -1.3053,0.38129 -1.475641,0.54965 -2.772216,1.29885 -3.824912,2.21012 -0.339176,0.29361 -0.785774,0.73863 -0.763541,0.76088 0.02619,0.0264 1.052781,0.50023 1.405736,0.64896 0.187911,0.0792 0.61673,0.25011 0.95297,0.37981 l 0.611297,0.23583 0.443967,-0.87379 c 0.244199,-0.48059 0.544378,-1.04035 0.667108,-1.24394 z m 10.872651,1.96585 c 0.192537,-0.0697 0.54789,-0.21144 0.78969,-0.3148 0.50253,-0.21479 1.678175,-0.78296 1.678175,-0.81103 0,-0.0423 -0.777148,-0.77505 -1.067722,-1.00664 -1.089954,-0.86859 -2.525228,-1.64192 -3.829586,-2.06338 -0.401471,-0.12973 -1.050737,-0.30204 -1.069055,-0.28372 -0.0061,0.006 0.136507,0.18415 0.318093,0.39448 0.880214,1.01942 1.603571,2.12262 2.238913,3.41474 0.17324,0.35236 0.339445,0.67588 0.369277,0.71894 0.0755,0.10891 0.156966,0.10193 0.572215,-0.0486 z m 14.68658,7.33012 A 21.086245,21.086245 0 0 1 22.142854,553.44845 21.086245,21.086245 0 0 1 1.056611,532.36218 21.086245,21.086245 0 0 1 22.142854,511.27595 21.086245,21.086245 0 0 1 43.229103,532.36218 Z" />
  </g>
</svg>
