<?xml version="1.0" encoding="UTF-8" standalone="no"?>
<!-- Created with Inkscape (http://www.inkscape.org/) -->

<svg
   width="11.902015mm"
   height="11.902015mm"
   viewBox="0 0 42.172493 42.172493"
   id="svg2"
   version="1.1"
   inkscape:version="1.1 (c68e22c387, 2021-05-23)"
   sodipodi:docname="icon_tools.svg"
   xmlns:inkscape="http://www.inkscape.org/namespaces/inkscape"
   xmlns:sodipodi="http://sodipodi.sourceforge.net/DTD/sodipodi-0.dtd"
   xmlns="http://www.w3.org/2000/svg"
   xmlns:svg="http://www.w3.org/2000/svg"
   xmlns:rdf="http://www.w3.org/1999/02/22-rdf-syntax-ns#"
   xmlns:cc="http://creativecommons.org/ns#"
   xmlns:dc="http://purl.org/dc/elements/1.1/">
  <defs
     id="defs4" />
  <sodipodi:namedview
     id="base"
     pagecolor="#ffffff"
     bordercolor="#666666"
     borderopacity="1.0"
     inkscape:pageopacity="0.0"
     inkscape:pageshadow="2"
     inkscape:zoom="11.006533"
     inkscape:cx="12.447153"
     inkscape:cy="33.707254"
     inkscape:document-units="px"
     inkscape:current-layer="layer1"
     showgrid="false"
     fit-margin-top="0"
     fit-margin-left="0"
     fit-margin-right="0"
     fit-margin-bottom="0"
     inkscape:window-width="1409"
     inkscape:window-height="1000"
     inkscape:window-x="-11"
     inkscape:window-y="0"
     inkscape:window-maximized="0"
     inkscape:pagecheckerboard="0"
     inkscape:snap-global="false" />
  <metadata
     id="metadata7">
    <rdf:RDF>
      <cc:Work
         rdf:about="">
        <dc:format>image/svg+xml</dc:format>
        <dc:type
           rdf:resource="http://purl.org/dc/dcmitype/StillImage" />
        <dc:title />
      </cc:Work>
    </rdf:RDF>
  </metadata>
  <g
     inkscape:label="Layer 1"
     inkscape:groupmode="layer"
     id="layer1"
     transform="translate(-1.056611,-511.27595)">
    <path
       id="path845"
       style="fill:#ffffff;fill-rule:evenodd;stroke-width:2.34764;stroke-linecap:round;paint-order:stroke fill markers;fill-opacity:1"
       d="m 22.861749,521.33899 c -1.87912,1.88195 -2.500764,4.68063 -1.594738,7.18102 l -10.835449,10.83545 c -2.8596386,2.80689 1.184232,7.09019 4.1108,4.1108 l 10.83545,-10.83545 c 2.50039,0.90603 5.299173,0.28448 7.181023,-1.59474 1.680985,-1.68092 2.306418,-4.01771 1.876967,-6.18678 l -3.652707,3.65271 -4.450506,-0.93677 -0.936764,-4.4505 3.652708,-3.65271 c -2.169075,-0.42946 -4.505855,0.19598 -6.186784,1.87697 z m 20.367354,11.02319 A 21.086245,21.086245 0 0 1 22.142854,553.44845 21.086245,21.086245 0 0 1 1.056611,532.36218 21.086245,21.086245 0 0 1 22.142854,511.27595 21.086245,21.086245 0 0 1 43.229103,532.36218 Z" />
  </g>
</svg>
