<?xml version="1.0" encoding="UTF-8" standalone="no"?>
<!-- Created with Inkscape (http://www.inkscape.org/) -->

<svg
   width="11.902015mm"
   height="11.902015mm"
   viewBox="0 0 42.172493 42.172493"
   id="svg2"
   version="1.1"
   inkscape:version="1.1 (c4e8f9e, 2021-05-24)"
   sodipodi:docname="icon_heading.svg"
   xmlns:inkscape="http://www.inkscape.org/namespaces/inkscape"
   xmlns:sodipodi="http://sodipodi.sourceforge.net/DTD/sodipodi-0.dtd"
   xmlns="http://www.w3.org/2000/svg"
   xmlns:svg="http://www.w3.org/2000/svg"
   xmlns:rdf="http://www.w3.org/1999/02/22-rdf-syntax-ns#"
   xmlns:cc="http://creativecommons.org/ns#"
   xmlns:dc="http://purl.org/dc/elements/1.1/">
  <defs
     id="defs4" />
  <sodipodi:namedview
     id="base"
     pagecolor="#ffffff"
     bordercolor="#666666"
     borderopacity="1.0"
     inkscape:pageopacity="0.0"
     inkscape:pageshadow="2"
     inkscape:zoom="11.006533"
     inkscape:cx="24.939734"
     inkscape:cy="27.847098"
     inkscape:document-units="px"
     inkscape:current-layer="layer1"
     showgrid="false"
     fit-margin-top="0"
     fit-margin-left="0"
     fit-margin-right="0"
     fit-margin-bottom="0"
     inkscape:window-width="1366"
     inkscape:window-height="744"
     inkscape:window-x="0"
     inkscape:window-y="24"
     inkscape:window-maximized="1"
     inkscape:pagecheckerboard="0"
     inkscape:snap-global="false" />
  <metadata
     id="metadata7">
    <rdf:RDF>
      <cc:Work
         rdf:about="">
        <dc:format>image/svg+xml</dc:format>
        <dc:type
           rdf:resource="http://purl.org/dc/dcmitype/StillImage" />
        <dc:title />
      </cc:Work>
    </rdf:RDF>
  </metadata>
  <g
     inkscape:label="Layer 1"
     inkscape:groupmode="layer"
     id="layer1"
     transform="translate(-1.056611,-511.27595)">
    <g
       aria-label="h"
       transform="matrix(2.021222,0,0,2.021222,83.123788,505.65602)"
       id="text781"
       style="font-size:15px;line-height:125%;-inkscape-font-specification:'sans-serif, Normal';text-align:center;letter-spacing:0px;word-spacing:0px;baseline-shift:baseline;text-anchor:middle;opacity:1;vector-effect:none;stroke-width:0.999999px;stop-color:#000000;stop-opacity:1">
      <path
         id="path2806"
         d="m -26.699081,13.619875 v 4.951172 h -1.347657 V 13.66382 q 0,-1.164551 -0.454101,-1.743164 -0.454102,-0.578613 -1.362305,-0.578613 -1.091309,0 -1.721191,0.695801 -0.629883,0.6958 -0.629883,1.896972 v 4.636231 h -1.354981 V 7.1745625 h 1.354981 v 4.4677735 q 0.483398,-0.739746 1.135254,-1.105957 0.659179,-0.366211 1.516113,-0.366211 1.413574,0 2.138672,0.878906 0.725098,0.871582 0.725098,2.570801 z m 6.961177,-0.406997 A 10.432424,10.432424 0 0 1 -30.17033,23.645315 10.432424,10.432424 0 0 1 -40.602753,13.212878 10.432424,10.432424 0 0 1 -30.17033,2.7804615 10.432424,10.432424 0 0 1 -19.737904,13.212878 Z"
         style="fill-rule:evenodd;fill:#ffffff;fill-opacity:1" />
    </g>
  </g>
</svg>
