<?xml version="1.0" encoding="UTF-8" standalone="no"?>
<!-- Created with Inkscape (http://www.inkscape.org/) -->

<svg
   width="11.902015mm"
   height="11.902015mm"
   viewBox="0 0 42.172493 42.172493"
   id="svg2"
   version="1.1"
   inkscape:version="1.1 (c4e8f9e, 2021-05-24)"
   sodipodi:docname="icon_small.svg"
   xmlns:inkscape="http://www.inkscape.org/namespaces/inkscape"
   xmlns:sodipodi="http://sodipodi.sourceforge.net/DTD/sodipodi-0.dtd"
   xmlns="http://www.w3.org/2000/svg"
   xmlns:svg="http://www.w3.org/2000/svg"
   xmlns:rdf="http://www.w3.org/1999/02/22-rdf-syntax-ns#"
   xmlns:cc="http://creativecommons.org/ns#"
   xmlns:dc="http://purl.org/dc/elements/1.1/">
  <defs
     id="defs4" />
  <sodipodi:namedview
     id="base"
     pagecolor="#ffffff"
     bordercolor="#666666"
     borderopacity="1.0"
     inkscape:pageopacity="0.0"
     inkscape:pageshadow="2"
     inkscape:zoom="11.006533"
     inkscape:cx="35.933204"
     inkscape:cy="24.667168"
     inkscape:document-units="px"
     inkscape:current-layer="layer1"
     showgrid="false"
     fit-margin-top="0"
     fit-margin-left="0"
     fit-margin-right="0"
     fit-margin-bottom="0"
     inkscape:window-width="1366"
     inkscape:window-height="744"
     inkscape:window-x="0"
     inkscape:window-y="24"
     inkscape:window-maximized="1"
     inkscape:pagecheckerboard="0"
     inkscape:snap-global="false" />
  <metadata
     id="metadata7">
    <rdf:RDF>
      <cc:Work
         rdf:about="">
        <dc:format>image/svg+xml</dc:format>
        <dc:type
           rdf:resource="http://purl.org/dc/dcmitype/StillImage" />
        <dc:title />
      </cc:Work>
    </rdf:RDF>
  </metadata>
  <g
     inkscape:label="Layer 1"
     inkscape:groupmode="layer"
     id="layer1"
     transform="translate(-1.056611,-511.27595)">
    <path
       id="path4463"
       style="font-size:15px;line-height:125%;-inkscape-font-specification:'sans-serif, Normal';text-align:center;letter-spacing:0px;word-spacing:0px;baseline-shift:baseline;text-anchor:middle;stroke-width:0.64127px;fill-rule:evenodd;fill:#ffffff;fill-opacity:1"
       d="m 29.030718,525.88644 h 0.591141 v 10.6842 h -0.591141 z m -1.828037,0 h 0.59114 v 10.6842 h -0.59114 z m -2.396688,6.81839 q -0.716437,0 -0.992731,0.35019 -0.276293,0.35019 -0.276293,1.19476 0,0.67292 0.205614,1.07117 0.208827,0.39139 0.565438,0.39139 0.491546,0 0.787117,-0.74158 0.298782,-0.74844 0.298782,-1.98441 v -0.28152 z m 1.179068,-0.52185 v 4.38766 H 25.39392 v -1.16729 q -0.202401,0.70038 -0.504396,1.03683 -0.301996,0.32959 -0.738926,0.32959 -0.552587,0 -0.880285,-0.65918 -0.324485,-0.66604 -0.324485,-1.77841 0,-1.29776 0.404803,-1.95694 0.408016,-0.65918 1.214408,-0.65918 h 0.828881 v -0.12359 q 0,-0.87204 -0.269868,-1.34583 -0.266656,-0.48065 -0.751776,-0.48065 -0.308421,0 -0.600779,0.15793 -0.292357,0.15793 -0.562226,0.47378 v -1.1673 q 0.324485,-0.26779 0.629693,-0.39825 0.305209,-0.13733 0.594353,-0.13733 0.780691,0 1.166217,0.86517 0.385527,0.86518 0.385527,2.62299 z m -6.422226,-1.82648 q 0.221678,-0.85144 0.530099,-1.25656 0.308421,-0.40512 0.726074,-0.40512 0.562226,0 0.867434,0.84457 0.305209,0.83771 0.305209,2.38953 v 4.64172 h -0.594353 v -4.60052 q 0,-1.1055 -0.183125,-1.64108 -0.183125,-0.53559 -0.559013,-0.53559 -0.459419,0 -0.726075,0.65232 -0.266655,0.65231 -0.266655,1.77841 v 4.34646 h -0.594354 v -4.60052 q 0,-1.11237 -0.183124,-1.64108 -0.183126,-0.53559 -0.565439,-0.53559 -0.452994,0 -0.719649,0.65918 -0.266656,0.65232 -0.266656,1.77155 v 4.34646 h -0.594353 v -7.69043 h 0.594353 v 1.19477 q 0.202402,-0.70725 0.485121,-1.0437 0.282719,-0.33646 0.671458,-0.33646 0.391952,0 0.665033,0.42572 0.276294,0.42572 0.408015,1.23596 z m -3.93558,-1.24969 v 1.19476 q -0.250593,-0.27466 -0.520461,-0.41199 -0.269868,-0.13733 -0.559013,-0.13733 -0.440143,0 -0.66182,0.2884 -0.218465,0.28839 -0.218465,0.86517 0,0.43945 0.157423,0.69351 0.157423,0.24719 0.632906,0.47379 l 0.202401,0.0961 q 0.629693,0.28839 0.893136,0.8171 0.266656,0.52186 0.266656,1.46256 0,1.07117 -0.398377,1.69601 -0.395165,0.62485 -1.089112,0.62485 -0.289145,0 -0.603991,-0.12359 -0.311634,-0.11673 -0.658608,-0.35706 v -1.30463 q 0.327697,0.36393 0.645757,0.54932 0.318059,0.17853 0.629693,0.17853 0.417653,0 0.642543,-0.30213 0.224891,-0.30899 0.224891,-0.86517 0,-0.51498 -0.163849,-0.78964 -0.160636,-0.27466 -0.710011,-0.52872 l -0.205614,-0.103 q -0.549375,-0.24719 -0.793542,-0.75531 -0.244166,-0.51498 -0.244166,-1.40762 0,-1.0849 0.359824,-1.67541 0.359825,-0.59052 1.021645,-0.59052 0.327697,0 0.616842,0.103 0.289145,0.10299 0.533312,0.30899 z m -0.260732,-4.79594 -7.9951114,7.7346 7.9951114,7.69244 v 3.83571 l -9.9319114,-9.79998 v -3.49848 l 9.9319114,-9.80001 z m 13.655396,0 v -3.83572 l 9.931912,9.80001 v 3.49848 l -9.931912,9.79998 v -3.83571 l 7.979617,-7.69244 z m 14.207184,8.05131 A 21.086245,21.086245 0 0 1 22.142854,553.44845 21.086245,21.086245 0 0 1 1.056611,532.36218 21.086245,21.086245 0 0 1 22.142854,511.27595 21.086245,21.086245 0 0 1 43.229103,532.36218 Z" />
  </g>
</svg>
