<?xml version="1.0" encoding="UTF-8" standalone="no"?>
<!-- Created with Inkscape (http://www.inkscape.org/) -->

<svg
   width="11.902015mm"
   height="11.902015mm"
   viewBox="0 0 42.172493 42.172493"
   id="svg2"
   version="1.1"
   inkscape:version="1.1 (c4e8f9e, 2021-05-24)"
   sodipodi:docname="icon_link.svg"
   xmlns:inkscape="http://www.inkscape.org/namespaces/inkscape"
   xmlns:sodipodi="http://sodipodi.sourceforge.net/DTD/sodipodi-0.dtd"
   xmlns="http://www.w3.org/2000/svg"
   xmlns:svg="http://www.w3.org/2000/svg"
   xmlns:rdf="http://www.w3.org/1999/02/22-rdf-syntax-ns#"
   xmlns:cc="http://creativecommons.org/ns#"
   xmlns:dc="http://purl.org/dc/elements/1.1/">
  <defs
     id="defs4" />
  <sodipodi:namedview
     id="base"
     pagecolor="#ffffff"
     bordercolor="#666666"
     borderopacity="1.0"
     inkscape:pageopacity="0.0"
     inkscape:pageshadow="2"
     inkscape:zoom="11.006533"
     inkscape:cx="13.128566"
     inkscape:cy="19.942701"
     inkscape:document-units="px"
     inkscape:current-layer="layer1"
     showgrid="false"
     fit-margin-top="0"
     fit-margin-left="0"
     fit-margin-right="0"
     fit-margin-bottom="0"
     inkscape:window-width="1366"
     inkscape:window-height="744"
     inkscape:window-x="0"
     inkscape:window-y="24"
     inkscape:window-maximized="1"
     inkscape:pagecheckerboard="0"
     inkscape:snap-global="false" />
  <metadata
     id="metadata7">
    <rdf:RDF>
      <cc:Work
         rdf:about="">
        <dc:format>image/svg+xml</dc:format>
        <dc:type
           rdf:resource="http://purl.org/dc/dcmitype/StillImage" />
        <dc:title />
      </cc:Work>
    </rdf:RDF>
  </metadata>
  <g
     inkscape:label="Layer 1"
     inkscape:groupmode="layer"
     id="layer1"
     transform="translate(-1.056611,-511.27595)">
    <path
       id="path1821"
       style="font-weight:bold;font-size:30.131px;line-height:125%;-inkscape-font-specification:'sans-serif, Bold';text-align:center;letter-spacing:0px;word-spacing:0px;baseline-shift:baseline;text-anchor:middle;fill:#ffffff;fill-opacity:1;fill-rule:evenodd;stroke-width:2.00873px"
       d="M 43.229103,532.36218 A 21.086245,21.086245 0 0 1 22.142854,553.44845 21.086245,21.086245 0 0 1 1.056611,532.36218 21.086245,21.086245 0 0 1 22.142854,511.27595 21.086245,21.086245 0 0 1 43.229103,532.36218 Z M 7.7023223,525.13496 a 1.3875557,1.3875557 0 0 0 -1.3873242,1.38733 v 12.53346 a 1.3875557,1.3875557 0 0 0 1.3873242,1.38733 H 19.751986 a 1.3875557,1.3875557 0 0 0 1.385257,-1.38733 v -4.92902 h 1.631295 v 4.92902 a 1.3875557,1.3875557 0 0 0 1.387324,1.38733 h 12.047596 a 1.3875557,1.3875557 0 0 0 1.387325,-1.38733 v -12.53346 a 1.3875557,1.3875557 0 0 0 -1.387325,-1.38733 H 24.155862 a 1.3875557,1.3875557 0 0 0 -1.387324,1.38733 v 4.82978 h -1.631295 v -4.82978 a 1.3875557,1.3875557 0 0 0 -1.385257,-1.38733 z m 1.3873236,2.77465 h 9.2750161 v 3.44246 h -3.08478 a 1.3874169,1.3874169 0 0 0 -0.471401,0.0931 1.3874169,1.3874169 0 0 0 -0.109574,0.0455 1.3874169,1.3874169 0 0 0 -0.667818,0.66988 1.3874169,1.3874169 0 0 0 -0.04342,0.10129 1.3874169,1.3874169 0 0 0 -0.09511,0.4776 1.3874169,1.3874169 0 0 0 0.09304,0.47346 1.3874169,1.3874169 0 0 0 0.04755,0.10965 1.3874169,1.3874169 0 0 0 0.266713,0.39696 1.3874169,1.3874169 0 0 0 0.399037,0.26879 1.3874169,1.3874169 0 0 0 0.109574,0.0455 1.3874169,1.3874169 0 0 0 0.471401,0.093 h 3.08478 v 3.5417 H 9.0896389 Z m 16.4535391,0 h 9.270881 v 9.75882 h -9.270881 v -3.5417 h 3.179888 a 1.3874169,1.3874169 0 0 0 1.387324,-1.38733 1.3874169,1.3874169 0 0 0 -1.387324,-1.38733 h -3.179888 z" />
  </g>
</svg>
