<?xml version="1.0" encoding="UTF-8" standalone="no"?>
<!-- Created with Inkscape (http://www.inkscape.org/) -->

<svg
   width="11.902015mm"
   height="11.902015mm"
   viewBox="0 0 42.172493 42.172493"
   id="svg2"
   version="1.1"
   inkscape:version="1.1 (c4e8f9e, 2021-05-24)"
   sodipodi:docname="icon_wikirem.svg"
   xmlns:inkscape="http://www.inkscape.org/namespaces/inkscape"
   xmlns:sodipodi="http://sodipodi.sourceforge.net/DTD/sodipodi-0.dtd"
   xmlns="http://www.w3.org/2000/svg"
   xmlns:svg="http://www.w3.org/2000/svg"
   xmlns:rdf="http://www.w3.org/1999/02/22-rdf-syntax-ns#"
   xmlns:cc="http://creativecommons.org/ns#"
   xmlns:dc="http://purl.org/dc/elements/1.1/">
  <defs
     id="defs4" />
  <sodipodi:namedview
     id="base"
     pagecolor="#ffffff"
     bordercolor="#666666"
     borderopacity="1.0"
     inkscape:pageopacity="0.0"
     inkscape:pageshadow="2"
     inkscape:zoom="9.5122949"
     inkscape:cx="2.3653598"
     inkscape:cy="27.700992"
     inkscape:document-units="px"
     inkscape:current-layer="layer1"
     showgrid="false"
     fit-margin-top="0"
     fit-margin-left="0"
     fit-margin-right="0"
     fit-margin-bottom="0"
     inkscape:window-width="1366"
     inkscape:window-height="744"
     inkscape:window-x="0"
     inkscape:window-y="24"
     inkscape:window-maximized="1"
     inkscape:pagecheckerboard="0"
     inkscape:snap-global="false" />
  <metadata
     id="metadata7">
    <rdf:RDF>
      <cc:Work
         rdf:about="">
        <dc:format>image/svg+xml</dc:format>
        <dc:type
           rdf:resource="http://purl.org/dc/dcmitype/StillImage" />
        <dc:title />
      </cc:Work>
    </rdf:RDF>
  </metadata>
  <g
     inkscape:label="Layer 1"
     inkscape:groupmode="layer"
     id="layer1"
     transform="translate(-1.056611,-511.27595)">
    <path
       id="path4863"
       style="font-size:15px;line-height:125%;font-family:'Abyssinica SIL';-inkscape-font-specification:'Abyssinica SIL, Normal';text-align:center;letter-spacing:0px;word-spacing:0px;baseline-shift:baseline;text-anchor:middle;stroke-width:2.17373px;fill:#ffffff;fill-opacity:1"
       d="m 6.7168497,522.50522 v 1.40105 l 1.9232495,0.31842 7.4679798,20.68448 h 2.483665 l 3.226644,-9.12377 3.294572,9.12377 h 2.483665 l 7.306647,-20.65051 1.880792,-0.35239 v -1.40105 h -6.478757 v 1.40105 l 1.795882,0.16138 c 0.116748,0.0116 0.222887,0.0744 0.318418,0.19105 0.09553,0.11687 0.14435,0.23141 0.14435,0.34813 0,0.0531 -0.0063,0.0934 -0.01697,0.11454 l -5.506521,16.04831 -3.502608,-9.84128 2.360545,-6.66979 1.880793,-0.35239 v -1.40104 h -4.258319 -2.220439 -5.578696 v 1.40104 l 1.923249,0.31842 3.112012,8.61853 -2.72142,7.92651 -5.731535,-16.11198 c -0.01044,-0.0209 -0.01693,-0.0616 -0.01693,-0.11454 0,-0.0955 0.02759,-0.18897 0.08067,-0.28446 0.05307,-0.10619 0.12523,-0.16995 0.220758,-0.19105 l 1.927496,-0.16138 v -1.40105 z m 15.6534643,1.49869 0.725994,0.0638 c 0.116744,0.0116 0.222892,0.0744 0.318419,0.19106 0.09553,0.11686 0.144359,0.2314 0.144359,0.34812 0,0.0531 -0.0065,0.0934 -0.01693,0.11454 l -1.086869,3.16297 -1.146308,-3.22664 c -0.01067,-0.0209 -0.01693,-0.0616 -0.01693,-0.11454 0,-0.0955 0.02759,-0.18897 0.08067,-0.28445 0.05307,-0.10619 0.125231,-0.16996 0.220759,-0.19106 z m 20.858789,8.35827 A 21.086245,21.086245 0 0 1 22.142854,553.44845 21.086245,21.086245 0 0 1 1.056611,532.36218 21.086245,21.086245 0 0 1 22.142854,511.27595 21.086245,21.086245 0 0 1 43.229103,532.36218 Z" />
  </g>
</svg>
