<?xml version="1.0" encoding="UTF-8" standalone="no"?>
<!-- Created with Inkscape (http://www.inkscape.org/) -->

<svg
   width="11.902015mm"
   height="11.902015mm"
   viewBox="0 0 42.172493 42.172493"
   id="svg2"
   version="1.1"
   inkscape:version="1.1 (c4e8f9e, 2021-05-24)"
   sodipodi:docname="icon_div.svg"
   xmlns:inkscape="http://www.inkscape.org/namespaces/inkscape"
   xmlns:sodipodi="http://sodipodi.sourceforge.net/DTD/sodipodi-0.dtd"
   xmlns="http://www.w3.org/2000/svg"
   xmlns:svg="http://www.w3.org/2000/svg"
   xmlns:rdf="http://www.w3.org/1999/02/22-rdf-syntax-ns#"
   xmlns:cc="http://creativecommons.org/ns#"
   xmlns:dc="http://purl.org/dc/elements/1.1/">
  <defs
     id="defs4" />
  <sodipodi:namedview
     id="base"
     pagecolor="#ffffff"
     bordercolor="#666666"
     borderopacity="1.0"
     inkscape:pageopacity="0.0"
     inkscape:pageshadow="2"
     inkscape:zoom="11.006533"
     inkscape:cx="-5.3150252"
     inkscape:cy="21.123818"
     inkscape:document-units="px"
     inkscape:current-layer="layer1"
     showgrid="false"
     fit-margin-top="0"
     fit-margin-left="0"
     fit-margin-right="0"
     fit-margin-bottom="0"
     inkscape:window-width="1366"
     inkscape:window-height="744"
     inkscape:window-x="0"
     inkscape:window-y="24"
     inkscape:window-maximized="1"
     inkscape:pagecheckerboard="0"
     inkscape:snap-global="false" />
  <metadata
     id="metadata7">
    <rdf:RDF>
      <cc:Work
         rdf:about="">
        <dc:format>image/svg+xml</dc:format>
        <dc:type
           rdf:resource="http://purl.org/dc/dcmitype/StillImage" />
        <dc:title />
      </cc:Work>
    </rdf:RDF>
  </metadata>
  <g
     inkscape:label="Layer 1"
     inkscape:groupmode="layer"
     id="layer1"
     transform="translate(-1.056611,-511.27595)">
    <path
       id="path1422"
       style="font-size:15px;line-height:125%;-inkscape-font-specification:'sans-serif, Normal';text-align:center;letter-spacing:0px;word-spacing:0px;baseline-shift:baseline;text-anchor:middle;stroke-width:0.937499px;fill-rule:evenodd;fill:#ffffff;fill-opacity:1"
       d="m 24.609479,528.53182 h 1.338959 l 2.403259,6.45446 2.403259,-6.45446 h 1.338958 l -2.883911,7.69043 H 27.49339 Z m -3.000641,0 h 1.263428 v 7.69043 h -1.263428 z m 0,-2.99378 h 1.263428 v 1.59989 h -1.263428 z m -3.865814,4.16108 v -4.16108 h 1.263427 v 10.68421 h -1.263427 v -1.15357 q -0.398255,0.68665 -1.009369,1.0231 -0.604248,0.32959 -1.455688,0.32959 -1.393891,0 -2.272797,-1.11236 -0.87204,-1.11237 -0.87204,-2.92511 0,-1.81275 0.87204,-2.92511 0.878906,-1.11237 2.272797,-1.11237 0.85144,0 1.455688,0.33646 0.611114,0.32959 1.009369,1.01624 z m -4.305267,2.68478 q 0,1.39389 0.569915,2.1904 0.576783,0.78964 1.579285,0.78964 1.002502,0 1.579285,-0.78964 0.576782,-0.79651 0.576782,-2.1904 0,-1.39389 -0.576782,-2.18353 -0.576783,-0.79651 -1.579285,-0.79651 -1.002502,0 -1.579285,0.79651 -0.569915,0.78964 -0.569915,2.18353 z m 1.928766,-8.07303 -7.9951114,7.7346 7.9951114,7.69244 v 3.83571 l -9.9319114,-9.79998 v -3.49848 l 9.9319114,-9.80001 z m 13.655396,0 v -3.83572 l 9.931912,9.80001 v 3.49848 l -9.931912,9.79998 v -3.83571 l 7.979617,-7.69244 z m 14.207184,8.05131 A 21.086245,21.086245 0 0 1 22.142854,553.44845 21.086245,21.086245 0 0 1 1.056611,532.36218 21.086245,21.086245 0 0 1 22.142854,511.27595 21.086245,21.086245 0 0 1 43.229103,532.36218 Z" />
  </g>
</svg>
