<?xml version="1.0" encoding="UTF-8" standalone="no"?>
<!-- Created with Inkscape (http://www.inkscape.org/) -->

<svg
   width="11.902015mm"
   height="11.902015mm"
   viewBox="0 0 42.172493 42.172493"
   id="svg2"
   version="1.1"
   inkscape:version="1.1 (c68e22c387, 2021-05-23)"
   sodipodi:docname="icon_pound.svg"
   xmlns:inkscape="http://www.inkscape.org/namespaces/inkscape"
   xmlns:sodipodi="http://sodipodi.sourceforge.net/DTD/sodipodi-0.dtd"
   xmlns="http://www.w3.org/2000/svg"
   xmlns:svg="http://www.w3.org/2000/svg"
   xmlns:rdf="http://www.w3.org/1999/02/22-rdf-syntax-ns#"
   xmlns:cc="http://creativecommons.org/ns#"
   xmlns:dc="http://purl.org/dc/elements/1.1/">
  <defs
     id="defs4" />
  <sodipodi:namedview
     id="base"
     pagecolor="#ffffff"
     bordercolor="#666666"
     borderopacity="1.0"
     inkscape:pageopacity="0.0"
     inkscape:pageshadow="2"
     inkscape:zoom="11.006533"
     inkscape:cx="31.027027"
     inkscape:cy="27.256539"
     inkscape:document-units="px"
     inkscape:current-layer="layer1"
     showgrid="false"
     fit-margin-top="0"
     fit-margin-left="0"
     fit-margin-right="0"
     fit-margin-bottom="0"
     inkscape:window-width="1920"
     inkscape:window-height="1000"
     inkscape:window-x="-11"
     inkscape:window-y="-11"
     inkscape:window-maximized="1"
     inkscape:pagecheckerboard="0"
     inkscape:snap-global="false" />
  <metadata
     id="metadata7">
    <rdf:RDF>
      <cc:Work
         rdf:about="">
        <dc:format>image/svg+xml</dc:format>
        <dc:type
           rdf:resource="http://purl.org/dc/dcmitype/StillImage" />
        <dc:title />
      </cc:Work>
    </rdf:RDF>
  </metadata>
  <g
     inkscape:label="Layer 1"
     inkscape:groupmode="layer"
     id="layer1"
     transform="translate(-1.056611,-511.27595)">
    <path
       id="path4623"
       style="font-weight:bold;font-size:15px;line-height:1.25;font-family:Arial;-inkscape-font-specification:'Arial, Bold';font-variant-ligatures:none;letter-spacing:0px;word-spacing:0px;fill:#ffffff;fill-opacity:1;fill-rule:evenodd;stroke-width:1.91587"
       d="m 27.919959,538.6751 1.616519,3.56234 q -0.853163,0.464 -1.975745,0.74838 -1.107614,0.29935 -2.15536,0.29935 -1.347097,0 -3.592262,-0.62863 -2.245166,-0.64364 -3.322845,-0.64364 -1.826067,0 -3.726974,1.30221 l -1.601551,-3.6222 q 1.691358,-1.21239 2.424779,-2.57447 0.748389,-1.37701 0.748389,-2.61934 0,-0.40414 -0.05988,-0.85316 h -3.113297 v -3.30789 h 2.34994 q -0.613678,-1.76618 -0.613678,-3.5773 0,-1.63147 0.883098,-3.11328 0.898066,-1.48182 2.529553,-2.24518 1.631487,-0.77831 3.562329,-0.77831 2.948649,0 4.699877,1.49677 1.751229,1.4818 2.140392,4.26582 l -4.056266,0.59871 q -0.284388,-1.60155 -1.032776,-2.30504 -0.748388,-0.70348 -1.87097,-0.70348 -1.197421,0 -1.990713,0.80825 -0.793292,0.79329 -0.793292,2.00567 0,0.62866 0.209548,1.66143 0.224518,1.03278 0.53884,1.88594 h 4.669945 v 3.30789 h -3.981427 q 0.0449,0.32929 0.0449,0.65857 0,1.18244 -0.449034,2.1853 -0.449031,1.00284 -1.841032,2.63433 0.823227,-0.4191 2.065551,-0.4191 0.52387,0 0.942968,0.0598 0.20955,0.0299 1.227357,0.28438 1.8111,0.464 2.469683,0.464 1.167485,0 3.053423,-0.8382 z m 15.309144,-6.31292 A 21.086245,21.086245 0 0 1 22.142855,553.44844 21.086245,21.086245 0 0 1 1.0566118,532.36218 21.086245,21.086245 0 0 1 22.142855,511.27595 21.086245,21.086245 0 0 1 43.229103,532.36218 Z" />
  </g>
</svg>
