<?xml version="1.0" encoding="UTF-8" standalone="no"?>
<svg
   width="11.902014mm"
   height="11.902015mm"
   viewBox="0 0 42.17249 42.172493"
   id="svg2"
   version="1.1"
   inkscape:version="1.1 (c68e22c387, 2021-05-23)"
   sodipodi:docname="icon_reset.svg"
   xmlns:inkscape="http://www.inkscape.org/namespaces/inkscape"
   xmlns:sodipodi="http://sodipodi.sourceforge.net/DTD/sodipodi-0.dtd"
   xmlns="http://www.w3.org/2000/svg"
   xmlns:svg="http://www.w3.org/2000/svg"
   xmlns:rdf="http://www.w3.org/1999/02/22-rdf-syntax-ns#"
   xmlns:cc="http://creativecommons.org/ns#"
   xmlns:dc="http://purl.org/dc/elements/1.1/">
  <defs
     id="defs4" />
  <sodipodi:namedview
     id="base"
     pagecolor="#ffffff"
     bordercolor="#666666"
     borderopacity="1.0"
     inkscape:pageopacity="0.0"
     inkscape:pageshadow="2"
     inkscape:zoom="5.9728261"
     inkscape:cx="-8.622384"
     inkscape:cy="33.819836"
     inkscape:document-units="px"
     inkscape:current-layer="layer1"
     showgrid="false"
     fit-margin-top="0"
     fit-margin-left="0"
     fit-margin-right="0"
     fit-margin-bottom="0"
     inkscape:window-width="1920"
     inkscape:window-height="1000"
     inkscape:window-x="-11"
     inkscape:window-y="-11"
     inkscape:window-maximized="1"
     inkscape:document-rotation="0"
     inkscape:pagecheckerboard="0"
     inkscape:snap-global="false" />
  <metadata
     id="metadata7">
    <rdf:RDF>
      <cc:Work
         rdf:about="">
        <dc:format>image/svg+xml</dc:format>
        <dc:type
           rdf:resource="http://purl.org/dc/dcmitype/StillImage" />
        <dc:title />
      </cc:Work>
    </rdf:RDF>
  </metadata>
  <g
     inkscape:label="Layer 1"
     inkscape:groupmode="layer"
     id="layer1"
     transform="translate(1098.2292,151.58119)">
    <path
       id="circle927"
       style="fill:#ffffff;fill-rule:evenodd;stroke:none;stroke-width:4.82901;stroke-linecap:round;paint-order:stroke fill markers;fill-opacity:1"
       d="m -1076.477,-147.89991 -6.6119,6.61189 6.6119,6.61336 v -3.96123 a 8.1510353,8.1510353 0 0 1 7.4315,8.08758 8.1510353,8.1510353 0 0 1 -8.1509,8.15097 8.1510353,8.1510353 0 0 1 -8.151,-8.15097 8.1510353,8.1510353 0 0 1 0.022,-0.25357 h -5.6522 a 13.797491,13.797491 0 0 0 -0.016,0.25357 13.797491,13.797491 0 0 0 13.7973,13.79724 13.797491,13.797491 0 0 0 13.7972,-13.79724 13.797491,13.797491 0 0 0 -13.0778,-13.74565 z m -21.7521,17.40495 a 21.086245,21.086245 0 0 0 21.0862,21.08627 21.086245,21.086245 0 0 0 21.0862,-21.08627 21.086245,21.086245 0 0 0 -21.0862,-21.08623 21.086245,21.086245 0 0 0 -21.0862,21.08623 z" />
  </g>
</svg>
