<?xml version="1.0" encoding="UTF-8" standalone="no"?>
<!-- Created with Inkscape (http://www.inkscape.org/) -->

<svg
   width="11.902015mm"
   height="11.902015mm"
   viewBox="0 0 42.172493 42.172493"
   id="svg2"
   version="1.1"
   inkscape:version="1.1 (c4e8f9e, 2021-05-24)"
   sodipodi:docname="icon_bold.svg"
   xmlns:inkscape="http://www.inkscape.org/namespaces/inkscape"
   xmlns:sodipodi="http://sodipodi.sourceforge.net/DTD/sodipodi-0.dtd"
   xmlns="http://www.w3.org/2000/svg"
   xmlns:svg="http://www.w3.org/2000/svg"
   xmlns:rdf="http://www.w3.org/1999/02/22-rdf-syntax-ns#"
   xmlns:cc="http://creativecommons.org/ns#"
   xmlns:dc="http://purl.org/dc/elements/1.1/">
  <defs
     id="defs4" />
  <sodipodi:namedview
     id="base"
     pagecolor="#ffffff"
     bordercolor="#666666"
     borderopacity="1.0"
     inkscape:pageopacity="0.0"
     inkscape:pageshadow="2"
     inkscape:zoom="11.006533"
     inkscape:cx="13.128566"
     inkscape:cy="27.211112"
     inkscape:document-units="px"
     inkscape:current-layer="layer1"
     showgrid="false"
     fit-margin-top="0"
     fit-margin-left="0"
     fit-margin-right="0"
     fit-margin-bottom="0"
     inkscape:window-width="1366"
     inkscape:window-height="744"
     inkscape:window-x="0"
     inkscape:window-y="24"
     inkscape:window-maximized="1"
     inkscape:pagecheckerboard="0"
     inkscape:snap-global="false" />
  <metadata
     id="metadata7">
    <rdf:RDF>
      <cc:Work
         rdf:about="">
        <dc:format>image/svg+xml</dc:format>
        <dc:type
           rdf:resource="http://purl.org/dc/dcmitype/StillImage" />
        <dc:title />
      </cc:Work>
    </rdf:RDF>
  </metadata>
  <g
     inkscape:label="Layer 1"
     inkscape:groupmode="layer"
     id="layer1"
     transform="translate(-1.056611,-511.27595)">
    <g
       aria-label="b"
       id="text736"
       style="font-weight:bold;font-size:30.131px;line-height:125%;-inkscape-font-specification:'sans-serif, Bold';text-align:center;letter-spacing:0px;word-spacing:0px;baseline-shift:baseline;text-anchor:middle;opacity:1;vector-effect:none;stroke-width:2.00873px;stop-color:#000000;stop-opacity:1"
       transform="translate(32.340395,-1.7887104)">
      <path
         id="path3488"
         d="m -10.418296,541.56091 q 1.691926,0 2.5746701,-1.23584 0.8974566,-1.23585 0.8974566,-3.58983 0,-2.35398 -0.8974566,-3.58983 -0.8827441,-1.23584 -2.5746701,-1.23584 -1.691927,0 -2.604096,1.25056 -0.897456,1.23584 -0.897456,3.57511 0,2.33927 0.897456,3.58983 0.912169,1.23584 2.604096,1.23584 z m -3.501552,-10.66649 q 1.088718,-1.44182 2.412834,-2.11859 1.324116,-0.69148 3.0454672,-0.69148 3.0454674,0 5.0022169,2.42754 1.9567496,2.41284 1.9567496,6.22335 0,3.81051 -1.9567496,6.23806 -1.9567495,2.41283 -5.0022169,2.41283 -1.7213512,0 -3.0454672,-0.67677 -1.324116,-0.69148 -2.412834,-2.1333 v 2.38341 h -5.26704 v -22.8925 h 5.26704 z m 24.808556,3.25647 a 21.086245,21.086245 0 0 1 -21.086249,21.08627 21.086245,21.086245 0 0 1 -21.086243,-21.08627 21.086245,21.086245 0 0 1 21.086243,-21.08623 21.086245,21.086245 0 0 1 21.086249,21.08623 z"
         style="fill-rule:evenodd;fill:#ffffff;fill-opacity:1" />
    </g>
  </g>
</svg>
