<?xml version="1.0" encoding="UTF-8" standalone="no"?>
<!-- Created with Inkscape (http://www.inkscape.org/) -->

<svg
   width="11.902015mm"
   height="11.902015mm"
   viewBox="0 0 42.172493 42.172493"
   id="svg2"
   version="1.1"
   inkscape:version="1.1 (c68e22c387, 2021-05-23)"
   sodipodi:docname="icon_dictionary.svg"
   xmlns:inkscape="http://www.inkscape.org/namespaces/inkscape"
   xmlns:sodipodi="http://sodipodi.sourceforge.net/DTD/sodipodi-0.dtd"
   xmlns="http://www.w3.org/2000/svg"
   xmlns:svg="http://www.w3.org/2000/svg"
   xmlns:rdf="http://www.w3.org/1999/02/22-rdf-syntax-ns#"
   xmlns:cc="http://creativecommons.org/ns#"
   xmlns:dc="http://purl.org/dc/elements/1.1/">
  <defs
     id="defs4" />
  <sodipodi:namedview
     id="base"
     pagecolor="#ffffff"
     bordercolor="#666666"
     borderopacity="1.0"
     inkscape:pageopacity="0.0"
     inkscape:pageshadow="2"
     inkscape:zoom="11.006533"
     inkscape:cx="31.027027"
     inkscape:cy="19.988129"
     inkscape:document-units="px"
     inkscape:current-layer="layer1"
     showgrid="false"
     fit-margin-top="0"
     fit-margin-left="0"
     fit-margin-right="0"
     fit-margin-bottom="0"
     inkscape:window-width="1920"
     inkscape:window-height="1000"
     inkscape:window-x="-11"
     inkscape:window-y="-11"
     inkscape:window-maximized="1"
     inkscape:pagecheckerboard="0"
     inkscape:snap-global="false" />
  <metadata
     id="metadata7">
    <rdf:RDF>
      <cc:Work
         rdf:about="">
        <dc:format>image/svg+xml</dc:format>
        <dc:type
           rdf:resource="http://purl.org/dc/dcmitype/StillImage" />
        <dc:title />
      </cc:Work>
    </rdf:RDF>
  </metadata>
  <g
     inkscape:label="Layer 1"
     inkscape:groupmode="layer"
     id="layer1"
     transform="translate(-1.056611,-511.27595)">
    <g
       aria-label="A"
       id="text2351"
       style="font-size:15px;line-height:1.25;font-family:Arial;-inkscape-font-specification:'Arial, Normal';font-variant-ligatures:none;letter-spacing:0px;word-spacing:0px;stroke-width:0.937499;stop-color:#000000"
       transform="matrix(1.1735423,0,0,1.1735423,-14.385543,-141.5565)" />
    <g
       aria-label="a"
       id="text4951"
       style="font-size:15px;line-height:1.25;font-family:Arial;-inkscape-font-specification:'Arial, Normal';font-variant-ligatures:none;letter-spacing:0px;word-spacing:0px;stroke-width:0.937499;stop-color:#000000;fill:#ffffff;fill-opacity:1"
       transform="matrix(1.2044785,0,0,1.2044785,-23.03345,-157.68707)">
      <path
         id="path7458"
         d="m 45.706104,576.32843 q -0.732422,0.62256 -1.413574,0.87891 -0.673828,0.25634 -1.450195,0.25634 -1.281739,0 -1.970215,-0.62255 -0.688477,-0.62989 -0.688477,-1.60401 0,-0.57129 0.256348,-1.04004 0.263672,-0.47607 0.681152,-0.76172 0.424805,-0.28564 0.952149,-0.43213 0.388183,-0.10253 1.171875,-0.19775 1.596679,-0.19043 2.351074,-0.4541 0.0073,-0.271 0.0073,-0.34424 0,-0.80566 -0.373535,-1.13525 -0.505371,-0.44678 -1.501465,-0.44678 -0.930176,0 -1.376953,0.32959 -0.439453,0.32227 -0.651855,1.1499 l -1.289063,-0.17578 q 0.175781,-0.82764 0.578613,-1.33301 0.402832,-0.51269 1.164551,-0.78369 0.761719,-0.27832 1.765137,-0.27832 0.996094,0 1.618652,0.23438 0.622559,0.23437 0.915528,0.59326 0.292968,0.35156 0.410156,0.89355 0.06592,0.33692 0.06592,1.21582 v 1.75782 q 0,1.83837 0.08057,2.3291 0.08789,0.4834 0.336914,0.93017 h -1.376953 q -0.205078,-0.41015 -0.263672,-0.95947 z m -0.109863,-2.94434 q -0.717773,0.29297 -2.15332,0.49805 -0.812989,0.11719 -1.149903,0.26367 -0.336914,0.14649 -0.520019,0.43213 -0.183106,0.27832 -0.183106,0.62256 0,0.52734 0.395508,0.87891 0.402832,0.35156 1.171875,0.35156 0.761719,0 1.354981,-0.32959 0.593261,-0.33691 0.871582,-0.91553 0.212402,-0.44678 0.212402,-1.31836 z m -19.565752,3.96249 4.017625,-10.46152 h 1.491445 l 4.281661,10.46152 h -1.577078 l -1.220274,-3.16842 h -4.37443 l -1.148912,3.16842 z m 3.01857,-4.29592 h 3.546643 l -1.091823,-2.89727 q -0.499528,-1.32017 -0.742155,-2.16937 -0.19981,1.00619 -0.563752,1.99811 z m 8.783831,-9.56878 c 0,0 4.090599,-0.5502 6.217122,-0.5502 2.126522,0 6.217122,0.5502 6.217122,0.5502 v 19.14654 c 0,0 -4.0906,-0.55021 -6.217122,-0.55021 -2.126523,0 -6.217122,0.55021 -6.217122,0.55021 z m -13.094467,-0.11005 c 0,0 4.090598,-0.55019 6.217121,-0.55019 2.126523,0 6.217121,0.55019 6.217121,0.55019 v 19.14654 c 0,0 -4.090598,-0.5502 -6.217121,-0.5502 -2.126523,0 -6.217121,0.5502 -6.217121,0.5502 z m 30.275056,9.53109 A 17.506535,17.506535 0 0 1 37.506941,590.40948 17.506535,17.506535 0 0 1 20.000408,572.90292 17.506535,17.506535 0 0 1 37.506941,555.3964 17.506535,17.506535 0 0 1 55.013479,572.90292 Z"
         style="fill-rule:evenodd;fill:#ffffff;fill-opacity:1" />
    </g>
  </g>
</svg>
