<?xml version="1.0" encoding="UTF-8" standalone="no"?>
<!-- Created with Inkscape (http://www.inkscape.org/) -->

<svg
   width="11.902015mm"
   height="11.902015mm"
   viewBox="0 0 42.172493 42.172493"
   id="svg2"
   version="1.1"
   inkscape:version="1.1 (c4e8f9e, 2021-05-24)"
   sodipodi:docname="icon_span.svg"
   xmlns:inkscape="http://www.inkscape.org/namespaces/inkscape"
   xmlns:sodipodi="http://sodipodi.sourceforge.net/DTD/sodipodi-0.dtd"
   xmlns="http://www.w3.org/2000/svg"
   xmlns:svg="http://www.w3.org/2000/svg"
   xmlns:rdf="http://www.w3.org/1999/02/22-rdf-syntax-ns#"
   xmlns:cc="http://creativecommons.org/ns#"
   xmlns:dc="http://purl.org/dc/elements/1.1/">
  <defs
     id="defs4" />
  <sodipodi:namedview
     id="base"
     pagecolor="#ffffff"
     bordercolor="#666666"
     borderopacity="1.0"
     inkscape:pageopacity="0.0"
     inkscape:pageshadow="2"
     inkscape:zoom="11.006533"
     inkscape:cx="22.21408"
     inkscape:cy="22.850066"
     inkscape:document-units="px"
     inkscape:current-layer="layer1"
     showgrid="false"
     fit-margin-top="0"
     fit-margin-left="0"
     fit-margin-right="0"
     fit-margin-bottom="0"
     inkscape:window-width="1366"
     inkscape:window-height="744"
     inkscape:window-x="0"
     inkscape:window-y="24"
     inkscape:window-maximized="1"
     inkscape:pagecheckerboard="0"
     inkscape:snap-global="false" />
  <metadata
     id="metadata7">
    <rdf:RDF>
      <cc:Work
         rdf:about="">
        <dc:format>image/svg+xml</dc:format>
        <dc:type
           rdf:resource="http://purl.org/dc/dcmitype/StillImage" />
        <dc:title />
      </cc:Work>
    </rdf:RDF>
  </metadata>
  <g
     inkscape:label="Layer 1"
     inkscape:groupmode="layer"
     id="layer1"
     transform="translate(-1.056611,-511.27595)">
    <path
       id="path1300"
       style="font-size:15px;line-height:125%;-inkscape-font-specification:'sans-serif, Normal';text-align:center;letter-spacing:0px;word-spacing:0px;baseline-shift:baseline;text-anchor:middle;stroke-width:0.707245px;fill-rule:evenodd;fill:#ffffff;fill-opacity:1"
       d="m 31.072113,531.09133 v 4.64173 h -0.719032 v -4.60053 q 0,-1.09176 -0.242283,-1.63421 -0.242282,-0.54245 -0.726847,-0.54245 -0.58226,0 -0.918329,0.65231 -0.336069,0.65231 -0.336069,1.77841 v 4.34647 h -0.72294 v -7.69043 h 0.72294 v 1.19476 q 0.257913,-0.69351 0.605706,-1.03683 0.3517,-0.34333 0.808911,-0.34333 0.754202,0 1.141073,0.82398 0.38687,0.81711 0.38687,2.41012 z m -6.553352,0.77591 q -0.871435,0 -1.207504,0.35019 -0.33607,0.35019 -0.33607,1.19477 0,0.67291 0.250099,1.07116 0.254005,0.39139 0.68777,0.39139 0.59789,0 0.957406,-0.74158 0.363424,-0.74844 0.363424,-1.9844 v -0.28153 z m 1.434157,-0.52185 v 4.38767 h -0.719032 v -1.1673 q -0.24619,0.70038 -0.613522,1.03684 -0.367331,0.32959 -0.89879,0.32959 -0.672139,0 -1.070732,-0.65918 -0.394686,-0.66605 -0.394686,-1.77842 0,-1.29776 0.49238,-1.95694 0.496288,-0.65918 1.477142,-0.65918 h 1.008208 v -0.12359 q 0,-0.87204 -0.328254,-1.34583 -0.324346,-0.48065 -0.914421,-0.48065 -0.375147,0 -0.730755,0.15793 -0.355609,0.15793 -0.683862,0.47379 v -1.1673 q 0.394686,-0.26779 0.765925,-0.39826 0.371239,-0.13733 0.72294,-0.13733 0.949591,0 1.418525,0.86518 0.468934,0.86517 0.468934,2.62298 z m -7.80775,3.2341 v 4.07868 h -0.72294 v -10.61554 h 0.72294 v 1.1673 q 0.226651,-0.68665 0.570537,-1.01624 0.347792,-0.33646 0.828449,-0.33646 0.797188,0 1.293476,1.11237 0.500196,1.11237 0.500196,2.92511 0,1.81274 -0.500196,2.92511 -0.496288,1.11237 -1.293476,1.11237 -0.480657,0 -0.828449,-0.32959 -0.343886,-0.33646 -0.570537,-1.02311 z m 2.446272,-2.68478 q 0,-1.39389 -0.328254,-2.18353 -0.324346,-0.79651 -0.894882,-0.79651 -0.570536,0 -0.89879,0.79651 -0.324346,0.78964 -0.324346,2.18353 0,1.39389 0.324346,2.1904 0.328254,0.78964 0.89879,0.78964 0.570536,0 0.894882,-0.78964 0.328254,-0.79651 0.328254,-2.1904 z m -4.521305,-3.62549 v 1.19477 q -0.304807,-0.27466 -0.63306,-0.41199 -0.328254,-0.13733 -0.679954,-0.13733 -0.535367,0 -0.805004,0.28839 -0.265729,0.28839 -0.265729,0.86517 0,0.43946 0.191482,0.69351 0.191481,0.2472 0.769833,0.47379 l 0.24619,0.0961 q 0.765926,0.28839 1.086363,0.81711 0.324347,0.52185 0.324347,1.46255 0,1.07117 -0.484566,1.69602 -0.480657,0.62485 -1.324738,0.62485 -0.3517,0 -0.734663,-0.1236 -0.379055,-0.11673 -0.801096,-0.35706 v -1.30462 q 0.398595,0.36392 0.785465,0.54931 0.38687,0.17853 0.765925,0.17853 0.508012,0 0.781557,-0.30212 0.273544,-0.30899 0.273544,-0.86518 0,-0.51498 -0.199296,-0.78964 -0.19539,-0.27466 -0.86362,-0.52872 l -0.250098,-0.10299 q -0.668231,-0.24719 -0.965223,-0.75531 -0.296991,-0.51499 -0.296991,-1.40763 0,-1.0849 0.437672,-1.67541 0.437671,-0.59052 1.242674,-0.59052 0.398594,0 0.750294,0.103 0.351701,0.103 0.648692,0.30899 z m -0.703612,-3.95835 -7.9951114,7.7346 7.9951114,7.69244 v 3.83571 l -9.9319114,-9.79998 v -3.49848 l 9.9319114,-9.80001 z m 13.655396,0 v -3.83572 l 9.931912,9.80001 v 3.49848 l -9.931912,9.79998 v -3.83571 l 7.979617,-7.69244 z m 14.207184,8.05131 A 21.086245,21.086245 0 0 1 22.142854,553.44845 21.086245,21.086245 0 0 1 1.056611,532.36218 21.086245,21.086245 0 0 1 22.142854,511.27595 21.086245,21.086245 0 0 1 43.229103,532.36218 Z" />
  </g>
</svg>
