<?xml version="1.0" encoding="UTF-8" standalone="no"?>
<!-- Created with Inkscape (http://www.inkscape.org/) -->

<svg
   width="11.902015mm"
   height="11.902015mm"
   viewBox="0 0 42.172493 42.172493"
   id="svg2"
   version="1.1"
   inkscape:version="1.1 (c68e22c387, 2021-05-23)"
   sodipodi:docname="icon_settings.svg"
   xmlns:inkscape="http://www.inkscape.org/namespaces/inkscape"
   xmlns:sodipodi="http://sodipodi.sourceforge.net/DTD/sodipodi-0.dtd"
   xmlns="http://www.w3.org/2000/svg"
   xmlns:svg="http://www.w3.org/2000/svg"
   xmlns:rdf="http://www.w3.org/1999/02/22-rdf-syntax-ns#"
   xmlns:cc="http://creativecommons.org/ns#"
   xmlns:dc="http://purl.org/dc/elements/1.1/">
  <defs
     id="defs4" />
  <sodipodi:namedview
     id="base"
     pagecolor="#ffffff"
     bordercolor="#666666"
     borderopacity="1.0"
     inkscape:pageopacity="0.0"
     inkscape:pageshadow="2"
     inkscape:zoom="11.006533"
     inkscape:cx="9.0400856"
     inkscape:cy="27.61996"
     inkscape:document-units="px"
     inkscape:current-layer="layer1"
     showgrid="false"
     fit-margin-top="0"
     fit-margin-left="0"
     fit-margin-right="0"
     fit-margin-bottom="0"
     inkscape:window-width="1920"
     inkscape:window-height="1000"
     inkscape:window-x="-11"
     inkscape:window-y="-11"
     inkscape:window-maximized="1"
     inkscape:pagecheckerboard="0"
     inkscape:snap-global="false" />
  <metadata
     id="metadata7">
    <rdf:RDF>
      <cc:Work
         rdf:about="">
        <dc:format>image/svg+xml</dc:format>
        <dc:type
           rdf:resource="http://purl.org/dc/dcmitype/StillImage" />
        <dc:title />
      </cc:Work>
    </rdf:RDF>
  </metadata>
  <g
     inkscape:label="Layer 1"
     inkscape:groupmode="layer"
     id="layer1"
     transform="translate(-1.056611,-511.27595)">
    <path
       id="path847"
       style="fill:#ffffff;fill-rule:evenodd;stroke-width:1.04784;stroke-linecap:round;paint-order:stroke fill markers;fill-opacity:1"
       d="m 18.587658,519.19742 v 2.55419 a 11.121106,11.121106 0 0 0 -1.62242,0.67839 l -1.810407,-1.81041 -4.838652,4.83865 1.810407,1.81041 a 11.121106,11.121106 0 0 0 -0.678391,1.62446 H 8.8919641 v 6.84318 h 2.5562309 a 11.121106,11.121106 0 0 0 0.678391,1.62446 l -1.810407,1.81041 4.838652,4.83865 1.810407,-1.81041 a 11.121106,11.121106 0 0 0 1.62242,0.6784 v 2.55418 h 6.84522 v -2.55418 a 11.121106,11.121106 0 0 0 1.622421,-0.6784 l 1.810407,1.81041 4.838652,-4.83865 -1.810408,-1.81041 a 11.121106,11.121106 0 0 0 0.678392,-1.62446 h 2.554187 v -6.84318 h -2.53784 A 11.121106,11.121106 0 0 0 31.91234,527.2523 l 1.792018,-1.79406 -4.838652,-4.83865 -1.794061,1.79406 a 11.121106,11.121106 0 0 0 -1.638767,-0.67839 v -2.53784 z m 7.272127,13.11722 a 3.8496134,3.8496134 0 0 1 -3.849613,3.84961 3.8496134,3.8496134 0 0 1 -3.849614,-3.84961 3.8496134,3.8496134 0 0 1 3.849614,-3.84962 3.8496134,3.8496134 0 0 1 3.849613,3.84962 z m 17.369318,0.0475 A 21.086245,21.086245 0 0 1 22.142854,553.44845 21.086245,21.086245 0 0 1 1.056611,532.36218 21.086245,21.086245 0 0 1 22.142854,511.27595 21.086245,21.086245 0 0 1 43.229103,532.36218 Z" />
  </g>
</svg>
