<?xml version="1.0" encoding="UTF-8" standalone="no"?>
<!-- Created with Inkscape (http://www.inkscape.org/) -->

<svg
   width="11.902015mm"
   height="11.902015mm"
   viewBox="0 0 42.172493 42.172493"
   id="svg2"
   version="1.1"
   inkscape:version="1.1 (c68e22c387, 2021-05-23)"
   sodipodi:docname="icon_spell.svg"
   xmlns:inkscape="http://www.inkscape.org/namespaces/inkscape"
   xmlns:sodipodi="http://sodipodi.sourceforge.net/DTD/sodipodi-0.dtd"
   xmlns="http://www.w3.org/2000/svg"
   xmlns:svg="http://www.w3.org/2000/svg"
   xmlns:rdf="http://www.w3.org/1999/02/22-rdf-syntax-ns#"
   xmlns:cc="http://creativecommons.org/ns#"
   xmlns:dc="http://purl.org/dc/elements/1.1/">
  <defs
     id="defs4" />
  <sodipodi:namedview
     id="base"
     pagecolor="#ffffff"
     bordercolor="#666666"
     borderopacity="1.0"
     inkscape:pageopacity="0.0"
     inkscape:pageshadow="2"
     inkscape:zoom="11.006533"
     inkscape:cx="31.027027"
     inkscape:cy="27.256539"
     inkscape:document-units="px"
     inkscape:current-layer="layer1"
     showgrid="false"
     fit-margin-top="0"
     fit-margin-left="0"
     fit-margin-right="0"
     fit-margin-bottom="0"
     inkscape:window-width="1920"
     inkscape:window-height="1000"
     inkscape:window-x="-11"
     inkscape:window-y="-11"
     inkscape:window-maximized="1"
     inkscape:pagecheckerboard="0"
     inkscape:snap-global="false" />
  <metadata
     id="metadata7">
    <rdf:RDF>
      <cc:Work
         rdf:about="">
        <dc:format>image/svg+xml</dc:format>
        <dc:type
           rdf:resource="http://purl.org/dc/dcmitype/StillImage" />
        <dc:title />
      </cc:Work>
    </rdf:RDF>
  </metadata>
  <g
     inkscape:label="Layer 1"
     inkscape:groupmode="layer"
     id="layer1"
     transform="translate(-1.056611,-511.27595)">
    <g
       aria-label="abc"
       id="text2101"
       style="font-size:15px;line-height:1.25;font-family:Arial;-inkscape-font-specification:'Arial, Normal';font-variant-ligatures:none;letter-spacing:0px;word-spacing:0px;stroke-width:0.937499;stop-color:#000000;fill:#ffffff;fill-opacity:1"
       transform="matrix(1.1331394,0,0,1.1331394,25.501131,-56.745543)">
      <path
         id="path3567"
         d="m 6.770298,525.54736 1.2963867,0.16846 q -0.2124023,1.34033 -1.0913086,2.10205 -0.871582,0.7544 -2.1459961,0.7544 -1.5966797,0 -2.5708007,-1.04004 -0.9667969,-1.04737 -0.9667969,-2.99561 0,-1.25976 0.4174804,-2.20459 0.4174805,-0.94482 1.2670899,-1.41357 0.8569336,-0.47608 1.8603516,-0.47608 1.2670898,0 2.0727539,0.64453 0.805664,0.63721 1.0327148,1.81641 l -1.2817383,0.19775 q -0.1831054,-0.78369 -0.6518554,-1.1792 -0.4614258,-0.3955 -1.1206055,-0.3955 -0.9960938,0 -1.6186524,0.71777 -0.6225586,0.71045 -0.6225586,2.25586 0,1.56738 0.600586,2.27783 0.6005859,0.71045 1.5673828,0.71045 0.7763672,0 1.2963867,-0.47607 0.5200195,-0.47608 0.6591797,-1.46485 z m -12.2021484,2.84912 H -6.654995 v -10.7373 h 1.3183594 v 3.83057 q 0.8349609,-1.04737 2.1313477,-1.04737 0.7177734,0 1.3549804,0.29297 0.6445313,0.28565 1.05468754,0.81299 0.41748046,0.52002 0.65185546,1.25977 0.234375,0.73974 0.234375,1.58203 0,1.99951 -0.98876953,3.09082 -0.98876957,1.09131 -2.37304687,1.09131 -1.3769531,0 -2.1606445,-1.14991 z m -0.014648,-3.94775 q 0,1.39893 0.3808594,2.02148 0.6225586,1.01807 1.6845703,1.01807 0.8642578,0 1.4941406,-0.74707 0.6298829,-0.75439 0.6298829,-2.24121 0,-1.52344 -0.6079102,-2.24854 -0.6005859,-0.72509 -1.4575195,-0.72509 -0.8642578,0 -1.4941407,0.75439 -0.6298828,0.74707 -0.6298828,2.16797 z m -4.4677739,2.98828 q -0.7324217,0.62256 -1.4135747,0.87891 -0.673828,0.25635 -1.450195,0.25635 -1.281738,0 -1.970215,-0.62256 -0.688476,-0.62989 -0.688476,-1.60401 0,-0.57129 0.256347,-1.04004 0.263672,-0.47607 0.681153,-0.76171 0.424804,-0.28565 0.952148,-0.43213 0.388184,-0.10254 1.171875,-0.19776 1.59668,-0.19043 2.351074,-0.4541 0.0073,-0.271 0.0073,-0.34424 0,-0.80566 -0.373536,-1.13525 -0.505371,-0.44678 -1.501464,-0.44678 -0.930176,0 -1.376953,0.32959 -0.439454,0.32227 -0.651856,1.1499 l -1.289062,-0.17578 q 0.175781,-0.82763 0.578613,-1.33301 0.402832,-0.51269 1.164551,-0.78369 0.761718,-0.27832 1.765136,-0.27832 0.996094,0 1.618653,0.23438 0.6225583,0.23437 0.915527,0.59326 0.2929688,0.35156 0.4101563,0.89355 0.065918,0.33692 0.065918,1.21582 v 1.75782 q 0,1.83838 0.080566,2.3291 0.087891,0.4834 0.3369141,0.93017 h -1.3769531 q -0.2050782,-0.41015 -0.2636719,-0.95947 z m -0.1098637,-2.94433 q -0.717773,0.29296 -2.15332,0.49804 -0.812988,0.11719 -1.149902,0.26367 -0.336914,0.14649 -0.52002,0.43213 -0.183105,0.27832 -0.183105,0.62256 0,0.52735 0.395508,0.87891 0.402832,0.35156 1.171875,0.35156 0.761718,0 1.35498,-0.32959 0.593262,-0.33691 0.871582,-0.91553 0.212402,-0.44677 0.212402,-1.31836 z m 16.8727629,-15.75282 -6.28572881,8.64664 -3.57014059,-4.6008 -0.8170151,2.05567 4.63029082,5.96637 7.11076938,-10.90671 z m 8.7963781,11.15003 A 18.608695,18.608695 0 0 1 -2.9636927,538.49861 18.608695,18.608695 0 0 1 -21.572386,519.88989 18.608695,18.608695 0 0 1 -2.9636927,501.28121 18.608695,18.608695 0 0 1 15.645005,519.88989 Z"
         style="fill:#ffffff;fill-opacity:1;fill-rule:evenodd" />
    </g>
  </g>
</svg>
